<mxfile host="app.diagrams.net" modified="2024-04-28T03:47:35.531Z" agent="Mozilla/5.0 (Windows NT 10.0; Win64; x64) AppleWebKit/537.36 (KHTML, like Gecko) Chrome/114.0.0.0 Safari/537.36" version="24.2.7" etag="q5znPGc2lu5opP6EcH57" type="github">
  <diagram name="第 1 页" id="T7uyHK-B_JqTSwR-4mf9">
    <mxGraphModel>
      <root>
        <mxCell id="0" />
        <mxCell id="1" parent="0" />
      </root>
    </mxGraphModel>
  </diagram>
</mxfile>
